<?xml version="1.0" encoding="UTF-8" standalone="no"?>
<!-- Original IASLab source asset copied unchanged from /home/ltonin/Downloads/logo.svg. -->
<svg width="18.271328mm" height="18.268698mm" viewBox="0 0 18.271328 18.268698" version="1.1" id="svg556" inkscape:version="1.2.2 (b0a8486541, 2022-12-01)" sodipodi:docname="logo.svg" xmlns:inkscape="http://www.inkscape.org/namespaces/inkscape" xmlns:sodipodi="http://sodipodi.sourceforge.net/DTD/sodipodi-0.dtd" xmlns="http://www.w3.org/2000/svg" xmlns:svg="http://www.w3.org/2000/svg">
  <sodipodi:namedview id="namedview558" pagecolor="#ffffff" bordercolor="#000000" borderopacity="0.25" inkscape:showpageshadow="2" inkscape:pageopacity="1" inkscape:pagecheckerboard="0" inkscape:deskcolor="#d1d1d1" inkscape:document-units="mm" showgrid="false" inkscape:zoom="3.0003928" inkscape:cx="53.659641" inkscape:cy="-35.495352" inkscape:window-width="1872" inkscape:window-height="1011" inkscape:window-x="48" inkscape:window-y="32" inkscape:window-maximized="1" inkscape:current-layer="layer1" />
  <defs id="defs553" />
  <g inkscape:label="Layer 1" inkscape:groupmode="layer" id="layer1" transform="translate(-62.871193,-206.39082)">
    <g id="g519" transform="matrix(0.26458333,0,0,0.26458333,62.870822,205.86165)">
      <path class="cls-1" d="M 63.1,23.5 A 15.36,15.36 0 0 1 45.52,7.1 v 0 A 15.35,15.35 0 0 1 21.52,7.93 15.36,15.36 0 0 1 5.1,25.51 v 0 a 15.36,15.36 0 0 1 0.83,24 v 0 a 15.36,15.36 0 0 1 17.58,16.4 v 0 a 15.36,15.36 0 0 1 24,-0.84 15.36,15.36 0 0 1 16.4,-17.58 v 0 A 15.35,15.35 0 0 1 63.1,23.5 Z M 49.91,44 a 2,2 0 0 1 -1.69,0.95 h -0.87 v 5.31 a 2.56,2.56 0 0 1 -0.9,1.93 2.7,2.7 0 0 1 -2.14,0.61 l -13.07,-2 A 2.65,2.65 0 0 1 29,48.15 v -7.42 a 5.68,5.68 0 1 1 2.05,0 v 7.42 a 0.62,0.62 0 0 0 0.55,0.59 l 13.06,2 a 0.61,0.61 0 0 0 0.51,-0.14 0.5,0.5 0 0 0 0.18,-0.37 v -6.36 a 1,1 0 0 1 1,-1 H 48 L 45.31,38 a 1.27,1.27 0 0 1 -0.15,-1 12.61,12.61 0 0 0 0.24,-2.44 12.25,12.25 0 1 0 -20,9.48 1,1 0 0 1 0.38,0.8 v 7 a 1.025,1.025 0 0 1 -2.05,0 V 45.26 A 14.29,14.29 0 1 1 47.45,34.51 14,14 0 0 1 47.2,37.14 L 50,42.07 A 1.89,1.89 0 0 1 49.91,44 Z" id="path96" style="fill:#231f20" />
      <path class="cls-1" d="m 34.53,2 a 34.44,34.44 0 0 0 -8.45,1.05 19.33,19.33 0 0 0 10.19,2.87 19.42,19.42 0 0 0 9,-2.19 A 34.28,34.28 0 0 0 34.53,2 Z" id="path98" style="fill:#231f20" />
      <path class="cls-1" d="m 52.21,6.89 a 19.53,19.53 0 0 0 13.09,14 34.27,34.27 0 0 0 -13.09,-14 z" id="path100" style="fill:#231f20" />
      <path class="cls-1" d="m 50.11,67.3 a 34.27,34.27 0 0 0 14,-13.09 19.52,19.52 0 0 0 -14,13.09 z" id="path102" style="fill:#231f20" />
      <path class="cls-1" d="M 68,28.08 A 19.49,19.49 0 0 0 67.33,47.26 34.21,34.21 0 0 0 68,28.08 Z" id="path104" style="fill:#231f20" />
      <path class="cls-1" d="m 32.77,67.11 a 19.46,19.46 0 0 0 -9,2.2 A 34.45,34.45 0 0 0 43,70 19.34,19.34 0 0 0 32.77,67.11 Z" id="path106" style="fill:#231f20" />
      <path class="cls-1" d="m 4.89,18.83 a 19.53,19.53 0 0 0 14,-13.1 34.22,34.22 0 0 0 -14,13.1 z" id="path108" style="fill:#231f20" />
      <path class="cls-1" d="m 16.83,66.15 a 19.51,19.51 0 0 0 -13.1,-14 34.22,34.22 0 0 0 13.1,14 z" id="path110" style="fill:#231f20" />
      <path class="cls-1" d="M 1.06,45 A 19.54,19.54 0 0 0 1.73,25.81 34.24,34.24 0 0 0 1.06,45 Z" id="path112" style="fill:#231f20" />
    </g>
  </g>
</svg>
